<svg width="59" height="57" viewBox="0 0 59 57" fill="none" xmlns="http://www.w3.org/2000/svg">
<path fill-rule="evenodd" clip-rule="evenodd" d="M26.7059 21.5423C21.1364 16.964 16.6234 11.5119 13.2321 5.15968C12.5538 3.89446 10.9756 3.41184 9.69734 4.0901C8.43212 4.76837 7.94942 6.34665 8.62768 7.62492C12.3581 14.5771 17.2886 20.551 23.393 25.5728C24.5017 26.4858 26.1581 26.3293 27.0712 25.2206C27.9842 24.0988 27.8146 22.4553 26.7059 21.5423Z" fill="#6468F1"/>
<path fill-rule="evenodd" clip-rule="evenodd" d="M23.7357 3.7119C24.0227 8.98147 24.2836 14.251 24.6097 19.5206C24.701 20.9554 25.9401 22.051 27.3749 21.9597C28.8097 21.8684 29.9053 20.6293 29.814 19.1945C29.4879 13.938 29.227 8.68149 28.9401 3.41193C28.8618 1.98106 27.6227 0.878878 26.1879 0.959747C24.7531 1.04062 23.6444 2.27321 23.7357 3.7119Z" fill="#6468F1"/>
<path fill-rule="evenodd" clip-rule="evenodd" d="M43.1001 4.78167C39.7609 9.81645 35.9785 14.4599 32.1698 19.1555C31.2567 20.2773 31.4262 21.9208 32.5479 22.8208C33.6697 23.7339 35.3132 23.5643 36.2132 22.4425C40.1263 17.6295 44.0132 12.8425 47.4567 7.66423C48.2523 6.46423 47.9131 4.84689 46.7131 4.05124C45.5262 3.25559 43.8957 3.58167 43.1001 4.78167Z" fill="#6468F1"/>
<path fill-rule="evenodd" clip-rule="evenodd" d="M56.0348 23.4989C46.9826 23.9032 37.3696 23.9163 28.3174 23.3424C26.8826 23.2641 25.6435 24.3467 25.5522 25.7945C25.4609 27.2293 26.5565 28.4685 27.9913 28.5598C37.2261 29.1337 47.0349 29.1206 56.2696 28.7163C57.7044 28.6511 58.8261 27.425 58.7608 25.9902C58.6956 24.5554 57.4696 23.4337 56.0348 23.4989Z" fill="#6468F1"/>
<path fill-rule="evenodd" clip-rule="evenodd" d="M23.3859 25.1552C28.9685 31.99 34.7468 38.6944 39.9251 45.8423C40.7729 47.0031 42.4034 47.2639 43.5773 46.4161C44.7382 45.5683 44.999 43.9378 44.1512 42.7769C38.9077 35.5508 33.0643 28.7682 27.4165 21.8552C26.5034 20.7465 24.8599 20.577 23.7512 21.49C22.6294 22.4031 22.4729 24.0465 23.3859 25.1552Z" fill="#6468F1"/>
<path fill-rule="evenodd" clip-rule="evenodd" d="M25.0766 27.1385C26.5375 34.2602 26.9418 41.0689 27.0462 48.282C27.0592 49.7167 28.2462 50.8645 29.681 50.8515C31.1288 50.8254 32.2766 49.6514 32.2505 48.2036C32.1462 40.6514 31.7158 33.5428 30.1897 26.0819C29.8897 24.6732 28.5202 23.7601 27.0984 24.0601C25.6897 24.3471 24.7766 25.7298 25.0766 27.1385Z" fill="#6468F1"/>
<path fill-rule="evenodd" clip-rule="evenodd" d="M25.3121 26.5648C21.086 35.017 18.9078 44.4083 14.3817 52.6779C13.6904 53.93 14.1598 55.5213 15.4251 56.2126C16.6903 56.9039 18.2686 56.4343 18.9599 55.1821C23.5121 46.8604 25.7164 37.4169 29.9816 28.8996C30.6207 27.6083 30.099 26.043 28.8207 25.3909C27.5294 24.7517 25.9643 25.2735 25.3121 26.5648Z" fill="#6468F1"/>
<path fill-rule="evenodd" clip-rule="evenodd" d="M27.6379 24.6467C19.2249 26.1336 10.8249 26.8119 2.35966 27.8162C0.924878 27.9858 -0.0925131 29.2772 0.0770521 30.7119C0.246617 32.1467 1.53804 33.1641 2.97283 32.9945C11.5293 31.9902 20.0337 31.2858 28.5511 29.7858C29.9598 29.525 30.9119 28.1684 30.6641 26.7597C30.4032 25.338 29.0597 24.3858 27.6379 24.6467Z" fill="#6468F1"/>
<path fill-rule="evenodd" clip-rule="evenodd" d="M33.4923 20.6822C31.7575 20.6039 30.114 20.4865 28.4183 20.2387C26.9836 20.03 25.6661 21.0213 25.4574 22.443C25.2487 23.8648 26.24 25.1952 27.6617 25.4039C29.54 25.6778 31.3531 25.8083 33.2574 25.8865C34.6922 25.9518 35.9182 24.843 35.9704 23.3952C36.0356 21.9604 34.927 20.7474 33.4923 20.6822Z" fill="#6468F1"/>
</svg>
