<svg width="30" height="30" viewBox="0 0 30 30" fill="none" xmlns="http://www.w3.org/2000/svg">
<g clip-path="url(#clip0_1_377)">
<path d="M15 30C23.2843 30 30 23.2843 30 15C30 6.71573 23.2843 0 15 0C6.71573 0 0 6.71573 0 15C0 23.2843 6.71573 30 15 30Z" fill="#F0F0F0"/>
<path d="M8.47852 20.2173L9.78287 29.0671C11.4078 29.67 13.1654 29.9999 15.0002 29.9999C21.4496 29.9999 26.9479 25.9293 29.0672 20.2173H8.47852Z" fill="black"/>
<path d="M8.47852 9.78264L9.78287 0.932871C11.4078 0.329883 13.1654 0 15.0002 0C21.4496 0 26.9479 4.07062 29.0672 9.78264H8.47852Z" fill="#6DA544"/>
<path d="M0 15.0001C0 21.4496 4.07068 26.9477 9.78264 29.0671V0.933105C4.07068 3.0525 0 8.55064 0 15.0001Z" fill="#A2001D"/>
</g>
<defs>
<clipPath id="clip0_1_377">
<rect width="30" height="30" fill="white"/>
</clipPath>
</defs>
</svg>
